<?xml version="1.0" standalone="no"?><!DOCTYPE svg PUBLIC "-//W3C//DTD SVG 1.1//EN" "http://www.w3.org/Graphics/SVG/1.1/DTD/svg11.dtd"><svg t="1754044286221" class="icon" viewBox="0 0 1024 1024" version="1.1" xmlns="http://www.w3.org/2000/svg" p-id="4617" xmlns:xlink="http://www.w3.org/1999/xlink" width="200" height="200"><path d="M1024 166.997333c0-68.394667-57.6-124.202667-127.914667-124.202666-70.314667 0-127.957333 55.893333-127.957333 124.16v0.725333c0 53.845333 35.626667 99.328 85.248 116.608v448.64c0 75.946667-64 138.026667-142.165333 138.026667-78.165333 0-142.336-61.44-142.336-138.026667V263.552C568.874667 141.44 467.2 42.666667 341.333333 42.666667 215.552 42.666667 113.792 141.44 113.792 263.552v419.669333C48.512 701.141333 0 759.893333 0 829.525333 0 913.749333 69.632 981.333333 156.330667 981.333333c86.741333 0 156.373333-67.669333 156.373333-151.808 0-69.76-48.384-128.469333-113.792-146.346666V263.594667c0-75.946667 64-138.026667 142.208-138.026667 78.165333 0 142.165333 61.482667 142.165333 138.026667v469.376c0 122.24 101.674667 220.885333 227.584 220.885333 125.866667 0 227.754667-98.730667 227.754667-220.885333V284.288C988.373333 267.008 1024 220.714667 1024 166.954667zM227.669333 829.525333c0 37.973333-32.085333 68.949333-71.082666 68.949334-39.04 0-71.125333-31.104-71.125334-68.949334 0-37.973333 32.085333-68.949333 71.125334-68.949333 38.997333 0 71.082667 30.933333 71.082666 68.949333z m668.288-621.226666c-23.509333 0-42.666667-18.645333-42.666666-41.429334s19.157333-41.429333 42.666666-41.429333c23.509333 0 42.666667 18.645333 42.666667 41.386667 0 22.826667-19.157333 41.472-42.666667 41.472z" fill="#666666" p-id="4618"></path></svg>