<?xml version="1.0" standalone="no"?><!DOCTYPE svg PUBLIC "-//W3C//DTD SVG 1.1//EN" "http://www.w3.org/Graphics/SVG/1.1/DTD/svg11.dtd"><svg t="1756481693729" class="icon" viewBox="0 0 1024 1024" version="1.1" xmlns="http://www.w3.org/2000/svg" p-id="1450" xmlns:xlink="http://www.w3.org/1999/xlink" width="200" height="200"><path d="M525.738667 182.357333c-10.325333 6.016-17.237333 15.061333-24.106667 24.106667-3.456 12.074667-3.456 27.136 3.413333 39.210667 3.456 12.032 13.781333 24.106667 27.562667 33.152 6.912 2.986667 13.781333 6.016 20.693333 6.016 6.869333 0 17.237333 0 24.106667-2.986667a32.426667 32.426667 0 0 0 17.237333-18.090667c3.413333-9.045333 6.912-15.104 6.912-24.149333 0-12.032 0-21.077333-3.456-30.122667-3.456-12.074667-13.781333-21.12-24.149333-27.136-3.413333-2.986667-10.325333-2.986667-17.194667-6.058666-6.912 0-13.781333 0-20.693333 3.029333-3.413333 0-6.869333 2.986667-10.325333 2.986667" fill="#FFFFFF" p-id="1451"></path><path d="M866.858667 610.474667c-6.869333-30.122667-17.237333-57.258667-27.562667-87.466667a331.392 331.392 0 0 0-34.474667-57.258667c-13.781333-18.090667-34.432-33.152-48.213333-48.213333l-20.693333-27.136-10.325334-18.090667c-10.325333-18.090667-17.237333-36.181333-31.018666-54.272-3.413333-3.029333-3.413333-6.058667-6.869334-9.045333 0-18.090667-3.456-33.194667-3.456-51.285333 0-33.152-3.456-66.304-10.325333-99.498667-3.456-15.061333-13.824-30.122667-24.149333-45.226667-10.325333-15.061333-27.562667-30.122667-44.8-42.197333-27.562667-18.090667-61.994667-27.136-99.925334-27.136-27.562667 0-51.669333 6.058667-75.776 15.104-24.149333 12.032-44.8 30.122667-55.168 51.2-10.325333 21.12-17.194667 45.226667-17.194666 69.376 0 24.106667 0 48.213333 3.413333 69.333333 0 24.149333 0 48.256 3.456 72.362667 0 9.045333 3.413333 15.104 3.413333 24.149333v12.032c-13.738667 18.090667-24.064 36.181333-41.301333 51.285334-10.368 12.032-20.693333 24.106667-31.018667 33.152-13.781333 12.074667-24.106667 27.136-34.474666 45.226666a200.96 200.96 0 0 0-13.781334 42.24c-6.869333 15.061333-13.781333 33.152-20.650666 48.213334 0 0 0 2.986667-3.456 2.986666-6.912 9.088-10.325333 18.133333-17.237334 27.178667l-3.413333 15.061333c-3.456 6.016-6.912 12.074667-10.368 21.12-3.413333 2.986667-3.413333 9.045333-3.413333 12.032 0 9.045333 0 18.090667 3.413333 27.136 0 2.986667 0 2.986667 3.413333 6.016l10.368 18.090667c0 3.029333 3.413333 6.058667 3.413334 9.045333v3.029334c3.498667 2.986667 3.498667 6.016 6.912 9.045333 3.456 2.986667 3.456 6.016 6.912 9.045333 3.413333 2.986667 3.413333 6.058667 6.869333 9.045334 10.368 30.165333 24.149333 57.301333 48.256 81.408-3.413333 6.016-6.869333 12.074667-10.325333 15.061333-13.781333 15.104-20.693333 33.194667-31.018667 48.256-3.413333 9.045333-3.413333 18.090667-3.413333 27.136 3.413333 9.045333 6.826667 18.090667 17.194666 24.106667 6.912 3.029333 10.325333 6.058667 17.237334 9.045333 6.869333 0 13.781333 3.029333 20.650666 3.029333 27.562667-2.986667 51.712-6.016 79.274667-12.074666 13.781333-2.986667 31.018667-5.973333 44.8-9.045334 17.237333-2.986667 31.018667-6.016 48.213333-6.016h62.037334c20.693333 0 37.888 2.986667 58.581333 6.016l51.669333 9.045334c27.562667 6.058667 51.712 12.074667 79.274667 12.074666h20.650667c6.912 0 13.781333-2.986667 20.693333-9.045333 6.912-6.016 13.781333-15.061333 17.237333-24.106667 3.413333-9.045333 0-18.090667-3.456-27.136-13.781333-21.12-24.106667-36.181333-34.474666-51.285333-3.413333-5.973333-6.869333-12.032-13.781334-18.090667 17.237333-18.090667 34.474667-39.168 48.256-60.288 6.912 0 17.237333 0 24.106667-2.986666a113.024 113.024 0 0 0 51.712-33.194667c3.413333-6.016 6.869333-9.045333 10.325333-15.061333 6.912-12.074667 13.781333-24.149333 17.237334-36.181334 3.413333-24.106667 3.413333-45.226667-3.413334-66.346666z" fill="#020204" p-id="1452"></path><path d="M408.576 315.008a21.632 21.632 0 0 0-6.912 15.061333c0 6.058667-3.413333 9.045333-3.413333 15.104 0 9.045333 0 21.077333-3.456 30.122667-3.413333 12.074667-10.325333 21.12-17.237334 30.165333a161.706667 161.706667 0 0 0-31.018666 51.242667c-6.869333 9.045333-6.869333 21.12-6.869334 33.194667a374.528 374.528 0 0 0-37.930666 60.288 244.864 244.864 0 0 0-30.976 99.498666c-3.456 42.24 3.413333 84.394667 20.650666 123.605334 13.781333 27.136 34.474667 54.272 58.581334 72.362666 13.781333 9.045333 27.562667 18.090667 44.8 24.106667 55.125333 24.149333 120.618667 24.149333 175.744-2.986667 27.562667-15.104 51.669333-30.165333 75.776-51.285333 13.781333-12.032 27.605333-24.106667 37.930666-39.168 17.237333-27.136 31.018667-60.330667 31.018667-93.44 10.325333-57.344 3.413333-114.602667-20.693333-165.845333-10.325333-18.090667-24.106667-33.194667-37.888-48.256-3.456-24.106667-13.781333-48.213333-24.149334-72.362667-6.869333-15.061333-20.650667-33.152-27.562666-48.213333-3.413333-6.058667-6.869333-15.104-10.325334-21.12a62.976 62.976 0 0 0-13.781333-18.090667c-6.912-6.058667-13.781333-9.045333-20.693333-12.074667-6.869333 6.016-13.781333 2.986667-24.106667 2.986667h-93.013333c-6.912 0-13.781333 3.029333-20.693334 3.029333-3.413333 3.029333-10.325333 6.058667-13.781333 12.074667m3.413333-132.693333a28.373333 28.373333 0 0 0-17.194666 6.058666c-3.413333 2.986667-6.912 9.045333-10.325334 15.061334-3.456 12.074667-3.456 21.12-3.456 33.194666 0 9.045333 3.413333 21.077333 6.869334 30.122667 3.456 6.058667 6.912 9.045333 10.368 12.074667 3.413333 2.986667 10.325333 6.016 13.781333 9.045333h17.237333c6.869333 0 10.325333-2.986667 13.781334-6.016 6.869333-6.058667 10.325333-12.074667 10.325333-18.090667 3.413333-6.058667 3.413333-15.104 3.413333-21.12 0-9.045333 0-18.090667-3.413333-27.136-3.413333-9.045333-6.912-15.061333-13.781333-21.12l-10.325334-9.045333c-6.912 0-10.368-2.986667-17.237333-2.986667m113.706667 0c-10.325333 6.016-17.237333 15.061333-24.106667 24.106667-3.456 12.074667-3.456 27.136 3.413333 39.210667 3.456 12.032 13.781333 24.106667 27.562667 33.152 6.912 2.986667 13.781333 6.016 20.693333 6.016 6.869333 0 17.237333 0 24.106667-2.986667a32.426667 32.426667 0 0 0 17.237333-18.090667c3.413333-9.045333 6.912-15.104 6.912-24.149333 0-12.032 0-21.077333-3.456-30.122667-3.456-12.074667-13.781333-21.12-24.149333-27.136-3.413333-2.986667-10.325333-2.986667-17.194667-6.058666-6.912 0-13.781333 0-20.693333 3.029333-3.413333 0-6.869333 2.986667-10.325333 2.986667" fill="#FFFFFF" p-id="1453"></path><path d="M549.845333 209.493333c-3.413333 0-6.869333 0-10.325333 2.986667-3.413333 3.029333-6.912 3.029333-6.912 6.058667-3.413333 6.016-6.869333 12.032-6.869333 18.090666 0 6.016 0 9.045333 3.413333 15.061334 3.456 6.016 3.456 9.045333 10.368 12.074666 0 2.986667 6.869333 6.016 13.781333 6.016 6.869333 0 10.325333 0 17.237334-2.986666l10.325333-9.088v-12.032c0-6.058667 0-15.104-3.413333-21.12a39.296 39.296 0 0 0-17.28-15.061334h-10.325334" fill="#020204" p-id="1454"></path><path d="M412.032 182.357333a28.373333 28.373333 0 0 0-17.237333 6.016c-3.413333 2.986667-6.912 9.045333-10.325334 15.061334-3.456 12.074667-3.456 21.12-3.456 33.194666 0 9.045333 3.413333 21.077333 6.869334 30.122667 3.456 6.058667 6.912 9.045333 10.368 12.074667 3.413333 2.986667 10.325333 6.016 13.781333 9.045333h17.237333c6.869333 0 10.325333-2.986667 13.781334-6.016 6.869333-6.058667 10.325333-12.074667 10.325333-18.090667 3.413333-6.058667 3.413333-15.104 3.413333-21.12 0-9.045333 0-18.090667-3.413333-27.136-3.413333-9.045333-6.912-15.061333-13.781333-21.12l-10.325334-9.045333c-6.912 0-10.368-2.986667-17.237333-2.986667" fill="#FFFFFF" p-id="1455"></path><path d="M398.250667 230.570667V251.733333c3.413333 2.986667 3.413333 9.045333 6.869333 12.074667 3.456 2.986667 6.912 2.986667 6.912 6.016 3.413333 0 6.869333 2.986667 10.325333 0 3.413333 0 6.912-2.986667 6.912-6.016 3.413333-2.986667 3.413333-6.058667 3.413334-9.045333 10.368-6.058667 10.368-15.104 6.912-21.12-3.413333-6.016-6.912-12.074667-10.325334-15.061334-3.456-2.986667-6.912-2.986667-10.368-2.986666h-10.325333c-3.413333 0-6.912 2.986667-6.912 5.973333-3.413333 3.029333-3.413333 6.058667-3.413333 9.045333" fill="#020204" p-id="1456"></path><path d="M384.426667 318.037333c3.456 2.986667 3.456 6.016 6.912 6.016l24.149333 21.12c6.869333 9.045333 17.194667 18.090667 27.562667 27.136 6.869333 6.016 17.194667 6.016 27.562666 9.045334 10.325333 0 20.650667 0 31.018667-3.029334 10.325333-2.986667 20.650667-6.016 27.562667-12.074666a148.309333 148.309333 0 0 1 48.213333-27.136c3.456 0 6.912-2.986667 10.368-2.986667 3.413333 0 6.869333-2.986667 10.325333-6.058667 0-2.986667 3.413333-6.016 3.413334-9.045333 0-2.986667 3.456-6.016 3.456-12.032v-12.074667c0-2.986667-3.413333-6.016-6.869334-6.016s-6.912-3.029333-10.325333-3.029333c-6.912 0-13.824 0-20.693333 2.986667h-27.562667c-10.325333 0-24.106667 3.029333-34.474667 3.029333-13.781333 0-27.562667 0-41.344-2.986667h-17.237333c-6.869333 0-10.325333 2.986667-17.194667 6.016-10.368 0-13.781333 2.986667-20.693333 6.016-3.413333 3.029333-3.413333 3.029333-6.912 3.029334-3.413333 0-6.869333 2.986667-6.869333 2.986666h-6.912l-3.413334 3.029334v6.058666" fill="#D99A03" p-id="1457"></path><path d="M412.032 290.901333c-3.456 2.986667-6.912 6.016-13.781333 9.045334-3.456 0-3.456 2.986667-6.912 6.016v21.12h6.912c3.413333 0 6.869333 2.986667 10.325333 6.016l10.325333 9.045333c10.368 6.016 20.693333 9.045333 34.474667 9.045333 10.325333 0 24.106667-2.986667 34.432-2.986666 10.368-3.029333 17.237333-3.029333 27.605333-6.058667 13.781333-2.986667 24.106667-12.074667 37.888-18.090667 3.413333-2.986667 10.325333-6.016 13.781334-12.074666 3.413333-2.986667 10.325333-2.986667 13.781333-6.016V299.946667l-3.413333-3.029334c-6.912-2.986667-10.368-6.016-17.28-6.016h-20.650667a28.416 28.416 0 0 1-17.237333-6.058666c-6.869333-2.986667-13.781333-2.986667-20.650667-2.986667a129.493333 129.493333 0 0 0-48.256 0c-13.781333-2.986667-27.562667 2.986667-41.386667 9.045333" fill="#604405" p-id="1458"></path><path d="M412.032 275.797333a39.296 39.296 0 0 0-17.237333 15.104c-3.413333 2.986667-6.912 6.016-6.912 12.032 0 3.029333-3.413333 6.058667-3.413334 9.045334v9.045333h6.869334c6.912 0 10.325333 3.029333 13.781333 6.058667 3.456 2.986667 6.912 6.016 13.781333 9.045333 10.368 6.016 20.693333 9.045333 34.474667 9.045333 10.325333 0 24.106667 0 34.432-3.029333 10.368 0 17.237333-2.986667 27.605333-6.016 13.781333-6.058667 24.106667-12.074667 37.888-18.090667a25.514667 25.514667 0 0 0 13.781334-12.074666l3.413333-2.986667s3.456-3.029333 6.912-3.029333h20.693333s3.413333 0 3.413334-3.029334v-6.016l-6.869334-6.058666c-3.413333 0-6.869333-2.986667-13.781333-2.986667-13.781333-2.986667-27.562667-6.058667-37.888-12.074667-6.912-2.986667-13.781333-6.016-17.237333-9.045333l-20.693334-9.045333a89.642667 89.642667 0 0 0-48.213333 2.986666c-20.693333 3.029333-34.474667 12.074667-44.8 21.12" fill="#F5BD0C" p-id="1459"></path><path d="M487.808 271.957333c0 14.208 3.456 14.208 6.912 14.208 3.413333 0 3.413333 14.208 6.912 14.208 3.413333 0 6.869333 0 6.869333-14.208s-3.413333-14.208-6.869333-28.458666c-3.456 0-6.912 0-13.824 14.250666 3.456-14.250667 0 0 0 0z m-41.344-14.250666c-3.413333 0-6.869333 14.250667-6.869333 28.458666 0 0 3.413333 14.208 3.413333 0l3.456-14.208c3.456 0 3.456 0 0-14.250666z" fill="#CD8907" p-id="1460"></path><path d="M959.914667 842.666667c-3.456 5.973333-6.912 9.002667-10.368 15.061333-10.325333 9.045333-20.650667 18.090667-34.432 21.077333a414.848 414.848 0 0 0-65.493334 30.165334c-13.781333 9.045333-27.562667 18.090667-37.888 27.136-10.325333 9.045333-20.693333 18.090667-31.018666 24.106666-10.325333 9.045333-24.106667 12.074667-37.888 15.104-17.237333 2.986667-34.474667 0-51.712-6.058666-10.325333-2.986667-20.650667-12.032-27.562667-21.077334-6.869333-9.045333-10.325333-21.12-6.869333-30.165333 0-18.090667 3.413333-39.210667 6.869333-57.301333 3.456-15.061333 6.912-30.122667 6.912-48.213334a370.773333 370.773333 0 0 0 0-87.466666v-15.061334c0-9.045333 10.325333-18.090667 20.650667-18.090666h13.781333c10.368 0 24.149333 2.986667 34.474667 6.016 6.869333 3.029333 13.781333 3.029333 20.693333 6.058666 13.781333 2.986667 24.106667 2.986667 37.888 2.986667 13.781333-2.986667 27.562667-5.973333 41.344-5.973333 6.912 0 10.325333 0 17.237333 2.986666 6.869333 0 10.325333 2.986667 13.781334 6.016 3.413333 2.986667 6.869333 6.016 6.869333 9.045334 3.456 6.016 3.456 12.074667 3.456 15.061333v15.104c3.413333 9.045333 6.912 15.061333 13.781333 21.077333l20.693334 18.090667c6.869333 6.058667 13.781333 12.074667 20.650666 15.104 3.456 2.986667 6.912 2.986667 10.368 6.016l10.325334 9.045333c3.413333 12.074667 3.413333 18.090667 3.413333 24.106667" fill="#F5BD0C" p-id="1461"></path><path d="M959.914667 842.666667c-3.456 5.973333-6.912 9.002667-10.368 15.061333-10.325333 9.045333-20.650667 18.090667-34.432 21.077333a414.848 414.848 0 0 0-65.493334 30.165334c-13.781333 9.045333-27.562667 18.090667-37.888 27.136-10.325333 9.045333-20.693333 18.090667-31.018666 24.106666-10.325333 9.045333-24.106667 12.074667-37.888 15.104-17.237333 2.986667-34.474667 0-51.712-6.058666-10.325333-2.986667-20.650667-12.032-27.562667-21.077334-6.869333-9.045333-10.325333-21.12-6.869333-30.165333 0-18.090667 3.413333-39.210667 6.869333-57.301333 3.456-15.061333 6.912-30.122667 6.912-48.213334a370.773333 370.773333 0 0 0 0-87.466666v-15.061334c0-9.045333 10.325333-18.090667 20.650667-18.090666h13.781333c10.368 0 24.149333 2.986667 34.474667 6.016 6.869333 3.029333 13.781333 3.029333 20.693333 6.058666 13.781333 2.986667 24.106667 2.986667 37.888 2.986667 13.781333-2.986667 27.562667-5.973333 41.344-5.973333 6.912 0 10.325333 0 17.237333 2.986666 6.869333 0 10.325333 2.986667 13.781334 6.016 3.413333 2.986667 6.869333 6.016 6.869333 9.045334 3.456 6.016 3.456 12.074667 3.456 15.061333v15.104c3.413333 9.045333 6.912 15.061333 13.781333 21.077333l20.693334 18.090667c6.869333 6.058667 13.781333 12.074667 20.650666 15.104 3.456 2.986667 6.912 2.986667 10.368 6.016l10.325334 9.045333c3.413333 12.074667 3.413333 18.090667 3.413333 24.106667M208.768 682.837333c6.869333-2.986667 13.781333-2.986667 17.237333 0 6.869333 0 10.325333 2.986667 17.237334 6.016 10.325333 6.058667 17.194667 15.104 24.106666 24.149334 17.237333 21.077333 34.432 42.24 48.213334 63.317333 10.368 18.090667 24.149333 36.181333 37.930666 51.242667 10.325333 12.074667 20.650667 21.12 27.562667 30.165333 10.325333 9.045333 17.237333 21.077333 20.650667 36.181333 6.912 18.090667 3.456 36.181333-6.869334 51.242667a75.477333 75.477333 0 0 1-27.562666 27.136c-10.325333 6.016-24.106667 9.045333-37.888 9.045333-20.693333-2.986667-44.8-9.045333-62.037334-18.090666-41.386667-15.061333-86.186667-18.090667-130.944-30.165334-13.781333-2.986667-27.562667-9.045333-37.888-12.032-6.912 0-10.368-3.029333-17.237333-6.058666-6.912-2.986667-10.325333-6.016-13.781333-9.045334-3.456-6.016-3.456-9.045333-3.456-15.061333 0-2.986667 0-9.045333 3.413333-12.074667 3.498667-9.045333 6.912-15.061333 10.368-21.077333 6.912-12.074667 6.912-27.136 6.912-39.210667 0-12.074667-3.456-27.136-3.456-39.210666v-18.090667c3.413333-12.032 13.781333-21.077333 27.562667-24.106667h41.344c6.912 0 13.781333-2.986667 17.237333-2.986666 0-6.058667 6.869333-12.074667 10.325333-15.104 3.413333-2.986667 6.912-9.045333 10.325334-15.061334 3.456-6.058667 6.912-9.045333 10.368-12.074666 0-2.986667 6.869333-6.016 10.325333-9.045334" fill="#F5BD0C" p-id="1462"></path><path d="M208.725333 682.837333c6.869333-2.986667 13.781333-2.986667 17.237334 0 6.869333 0 10.325333 2.986667 17.237333 6.016 10.325333 6.058667 17.194667 15.104 24.106667 24.149334 17.237333 21.077333 34.432 42.24 48.213333 63.317333 10.368 18.090667 24.149333 36.181333 37.930667 51.242667 10.325333 12.074667 20.650667 21.12 27.562666 30.165333 10.325333 9.045333 17.237333 21.077333 20.650667 36.181333 6.912 18.090667 3.456 36.181333-6.869333 51.242667a75.477333 75.477333 0 0 1-27.562667 27.136c-10.325333 6.016-24.106667 9.045333-37.888 9.045333-20.693333-2.986667-44.8-9.045333-62.037333-18.090666-41.386667-15.061333-86.186667-18.090667-130.944-30.165334-13.781333-2.986667-27.562667-9.045333-37.888-12.032-6.912 0-10.368-3.029333-17.237334-6.058666-6.912-2.986667-10.325333-6.016-13.781333-9.045334-3.456-6.016-3.456-9.045333-3.456-15.061333 0-2.986667 0-9.045333 3.413333-12.074667 3.498667-9.045333 6.912-15.061333 10.368-21.077333 6.912-12.074667 6.912-27.136 6.912-39.210667 0-12.074667-3.456-27.136-3.456-39.210666v-18.090667c3.413333-12.032 13.781333-21.077333 27.562667-24.106667h41.344c6.912 0 13.781333-2.986667 17.237333-2.986666 0-6.058667 6.869333-12.074667 10.325334-15.104 3.413333-2.986667 6.912-9.045333 10.325333-15.061334 3.456-6.058667 6.912-9.045333 10.368-12.074666 0-2.986667 6.869333-6.016 10.325333-9.045334" fill="#F5BD0C" p-id="1463"></path><path d="M219.050667 691.882667c6.912-2.986667 10.325333-2.986667 17.237333 0 6.912 0 10.325333 2.986667 13.781333 6.016 6.912 6.058667 17.237333 15.104 20.693334 24.149333 13.781333 21.12 27.562667 42.24 41.344 60.288l31.018666 45.226667c6.869333 9.045333 17.194667 18.090667 24.106667 27.136 10.325333 9.045333 13.781333 21.12 20.650667 30.165333 3.456 15.061333 3.456 30.122667-6.869334 45.226667-6.912 9.045333-13.781333 18.090667-24.106666 24.106666-10.368 6.016-24.149333 9.045333-37.930667 9.045334-20.650667-2.986667-37.888-9.045333-58.581333-15.061334-37.888-12.074667-75.776-12.074667-113.706667-21.12l-41.344-9.045333c-6.869333 0-10.325333-2.986667-17.237333-2.986667a47.445333 47.445333 0 0 1-13.781334-9.088c-3.413333-2.986667-3.413333-6.016-3.413333-12.032 0-3.029333 0-9.045333 3.413333-12.074666 3.456-6.016 6.912-15.061333 10.368-21.12 3.413333-12.032 6.869333-24.106667 3.413334-36.181334 0-12.032-3.413333-24.106667-3.413334-36.181333v-15.061333c0-6.016 3.413333-9.045333 6.869334-15.061334a28.416 28.416 0 0 1 17.237333-6.016h41.344c6.912 0 13.781333-3.029333 20.693333-6.058666 3.413333-2.986667 10.325333-6.016 10.325334-12.074667 3.413333-5.973333 3.413333-9.045333 6.869333-15.061333s3.456-9.045333 6.912-15.061334c13.781333-6.058667 17.237333-12.074667 24.106667-12.074666" fill="#F5BD0C" p-id="1464"></path></svg>